<svg width="12" height="15" viewBox="0 0 12 15" fill="none" xmlns="http://www.w3.org/2000/svg">
<path d="M9.96064 7.61081C9.9681 7.06222 10.1172 6.52454 10.3949 6.047C10.6722 5.56997 11.0688 5.16947 11.5473 4.88175C11.2432 4.45789 10.8422 4.10906 10.3756 3.86309C9.90896 3.61662 9.39068 3.47995 8.86047 3.46405C7.72999 3.34826 6.6343 4.12446 6.05838 4.12446C5.47102 4.12446 4.58403 3.47548 3.62896 3.49486C3.0113 3.51424 2.40953 3.68964 1.88181 4.00369C1.35408 4.31774 0.918788 4.76 0.618155 5.28723C-0.683759 7.48806 0.287712 10.722 1.53447 12.5009C2.15859 13.372 2.88756 14.345 3.84164 14.3102C4.77534 14.2724 5.12417 13.7288 6.25117 13.7288C7.36774 13.7288 7.69521 14.3102 8.66866 14.2883C9.67044 14.2724 10.302 13.4133 10.9038 12.5342C11.352 11.9136 11.6974 11.2278 11.9259 10.5019C11.3441 10.2613 10.8471 9.85934 10.4978 9.34503C10.1485 8.83073 9.96164 8.22798 9.96064 7.61081Z" fill="white"/>
<path d="M8.1221 2.29377C8.66871 1.65374 8.93754 0.83084 8.87244 0C8.03812 0.0854692 7.26691 0.475053 6.71335 1.09073C6.44253 1.39136 6.23532 1.7412 6.10314 2.12035C5.97096 2.49949 5.9168 2.9 5.94363 3.29952C6.36104 3.30399 6.77397 3.21553 7.15113 3.04111C7.52878 2.86719 7.86073 2.61179 8.1221 2.29377Z" fill="white"/>
</svg>
