<?xml version="1.0" encoding="iso-8859-1"?>
<!-- Uploaded to: SVG Repo, www.svgrepo.com, Generator: SVG Repo Mixer Tools -->
<svg fill="#000000" version="1.1" id="Layer_1" xmlns="http://www.w3.org/2000/svg" xmlns:xlink="http://www.w3.org/1999/xlink" 
	 viewBox="0 0 496 496" xml:space="preserve">
<g>
	<g>
		<g>
			<rect x="144" y="272" width="16" height="16"/>
			<rect x="144" y="304" width="16" height="32"/>
			<path d="M304,304v-16h-16v16c-22.056,0-40,17.944-40,40c0,22.056,17.944,40,40,40h16c13.232,0,24,10.768,24,24s-10.768,24-24,24
				h-16c-13.232,0-24-10.768-24-24v-8h-16v8c0,22.056,17.944,40,40,40v16h16v-16c22.056,0,40-17.944,40-40c0-22.056-17.944-40-40-40
				h-16c-13.232,0-24-10.768-24-24s10.768-24,24-24h16c13.232,0,24,10.768,24,24v8h16v-8C344,321.944,326.056,304,304,304z"/>
			<path d="M464,432v-32h16v-64h-71c-16.528-46.528-60.872-80-113-80c-26.72,0-51.344,8.888-71.304,23.712L168.32,248l62.592-35.208
				C266.128,192.984,288,155.576,288,115.176V48h16V0H0v48h16v67.176c0,40.4,21.872,77.808,57.088,97.616L135.68,248l-62.592,35.208
				C37.872,303.016,16,340.424,16,380.824V448H0v48h296h200v-64H464z M432,352v16h16v-16h16v32h-48.408
				c0.176-2.656,0.408-5.296,0.408-8c0-8.216-0.84-16.24-2.416-24H432z M413.576,400H416v16h16v-16h16v32h-45.952
				C407.312,422.064,411.272,411.336,413.576,400z M16,16h272v16H16V16z M80.936,198.848C61.944,188.168,47.504,171.504,39.392,152
				H240v-16H34.488C32.976,129.224,32,122.28,32,115.176V48h240v67.176c0,7.104-0.976,14.048-2.488,20.824H256v16h8.608
				c-8.12,19.504-22.56,36.168-41.544,46.848L152,238.824L80.936,198.848z M32,380.824c0-34.632,18.752-66.688,48.936-83.672
				L152,257.176l59.672,33.568c-17.24,17.056-29.264,39.296-33.696,64.144c-30.696-6.44-62.84-1.312-89.648,14.328L32,402.072
				V380.824z M32,420.592l64.392-37.56c23.864-13.92,52.544-18.304,79.872-12.144C176.184,372.6,176,374.28,176,376
				c0,27.032,9.088,51.92,24.232,72H32V420.592z M16,480v-16h198.696c6.6,6.104,13.856,11.488,21.696,16H16z M192,376
				c0-57.344,46.656-104,104-104s104,46.656,104,104s-46.656,104-104,104S192,433.344,192,376z M480,480H355.608
				c10.6-6.096,20.144-13.768,28.392-22.696V464h16v-16h16v16h16v-16h16v16h16v-16h16V480z"/>
		</g>
	</g>
</g>
</svg>