<svg width="25" height="20" viewBox="0 0 25 20" fill="none" xmlns="http://www.w3.org/2000/svg">
<path d="M20.8083 19.2604H4.65857C2.08952 19.2604 0 17.1684 0 14.5993V4.66106C0 2.09201 2.08952 0 4.65857 0H20.8083C22.6926 0 24.2246 1.53547 24.2246 3.41877V15.8416C24.2246 17.7249 22.6926 19.2604 20.8083 19.2604ZM4.65857 1.8684C3.11714 1.8684 1.86343 3.12062 1.86343 4.66106V14.5993C1.86343 16.1398 3.11714 17.392 4.65857 17.392H20.8083C21.664 17.392 22.3611 16.6963 22.3611 15.8416V3.41877C22.3611 2.56408 21.664 1.8684 20.8083 1.8684H4.65857Z" fill="#01081B"/>
<path d="M23.2927 4.96924H18.423C17.1981 4.96924 15.998 5.47113 15.1309 6.34073C14.2504 7.22026 13.7644 8.38801 13.7644 9.63029C13.7644 12.1993 15.8539 14.2914 18.423 14.2914H23.2927C23.807 14.2914 24.2244 13.869 24.2244 13.3572V5.90344C24.2244 5.38665 23.807 4.96924 23.2927 4.96924ZM22.361 12.4229H18.423C16.8815 12.4229 15.6278 11.1707 15.6278 9.63029C15.6278 8.88492 15.9185 8.18428 16.4477 7.65259C16.9685 7.1358 17.689 6.83764 18.423 6.83764H22.361V12.4229ZM18.982 8.97439C19.1559 9.14831 19.2553 9.38184 19.2553 9.63029C19.2553 9.75452 19.2304 9.86383 19.1807 9.99303C19.1435 10.1024 19.069 10.2017 18.982 10.2862C18.8081 10.4601 18.572 10.5645 18.3236 10.5645C18.0751 10.5645 17.8391 10.4601 17.6652 10.2862C17.4912 10.1123 17.3919 9.87875 17.3919 9.63029C17.3919 9.38184 17.4912 9.14831 17.6652 8.97439C18.013 8.62656 18.6342 8.62656 18.982 8.97439Z" fill="#2E68FD"/>
</svg>
