<svg width="22" height="25" viewBox="0 0 22 25" fill="none" xmlns="http://www.w3.org/2000/svg">
<path d="M14.9084 5.90334V3.41877C14.9084 2.56408 14.1109 1.8684 13.1319 1.8684H3.63989C2.66097 1.8684 1.86343 2.56408 1.86343 3.41877V20.8108C1.86343 21.6655 2.66097 22.3611 3.63989 22.3611H13.1319C14.1109 22.3611 14.9084 21.6655 14.9084 20.8108V15.8416C14.9084 15.3298 15.3258 14.9074 15.8401 14.9074C16.3544 14.9074 16.7718 15.3298 16.7718 15.8416V20.8108C16.7718 22.6941 15.1395 24.2295 13.1319 24.2295H3.63989C1.63335 24.2295 0 22.6941 0 20.8108V3.41877C0 1.53547 1.63236 0 3.63989 0H13.1319C15.1385 0 16.7718 1.53547 16.7718 3.41877V5.90334C16.7718 6.41516 16.3544 6.83754 15.8401 6.83754C15.3258 6.83754 14.9084 6.41516 14.9084 5.90334Z" fill="#01081B"/>
<path d="M18.3247 4.96924H9.62869C7.74389 4.96924 6.2124 6.50471 6.2124 8.38801V13.3572C6.2124 15.2405 7.74389 16.7759 9.62869 16.7759H18.3247C20.209 16.7759 21.741 15.2405 21.741 13.3572V8.38801C21.741 6.50471 20.209 4.96924 18.3247 4.96924ZM9.62869 6.83764H18.3247C19.1804 6.83764 19.8775 7.53332 19.8775 8.38801V8.69609H8.07583V8.38801C8.07583 7.53332 8.773 6.83764 9.62869 6.83764ZM18.3247 14.9075H9.62869C8.773 14.9075 8.07583 14.2118 8.07583 13.3572V10.5645H19.8775V13.3572C19.8775 14.2118 19.1804 14.9075 18.3247 14.9075Z" fill="#2E68FD"/>
</svg>
