<svg width="22" height="25" viewBox="0 0 22 25" fill="none" xmlns="http://www.w3.org/2000/svg">
<path d="M19.2554 3.41877V12.1148C19.2554 12.6266 18.838 13.049 18.3237 13.049C17.8094 13.049 17.392 12.6266 17.392 12.1148V3.41877C17.392 2.56408 16.6948 1.8684 15.8391 1.8684H3.41628C2.5606 1.8684 1.86343 2.56408 1.86343 3.41877V19.5685C1.86343 20.4232 2.5606 21.1188 3.41628 21.1188H10.87C11.3843 21.1188 11.8017 21.5412 11.8017 22.053C11.8017 22.5649 11.3843 22.9872 10.87 22.9872H3.41628C1.53149 22.9872 0 21.4518 0 19.5685V3.41877C0 1.53547 1.53149 0 3.41628 0H15.8391C17.7234 0 19.2554 1.53547 19.2554 3.41877ZM14.5969 3.72686H4.65857C4.14426 3.72686 3.72686 4.14923 3.72686 4.66106C3.72686 5.17288 4.14426 5.59526 4.65857 5.59526H14.5969C15.1112 5.59526 15.5286 5.17288 15.5286 4.66106C15.5286 4.14923 15.1112 3.72686 14.5969 3.72686ZM10.5594 8.38791C10.5594 7.87609 10.142 7.45371 9.62771 7.45371H4.65857C4.14426 7.45371 3.72686 7.87609 3.72686 8.38791C3.72686 8.89973 4.14426 9.32211 4.65857 9.32211H9.62771C10.142 9.32211 10.5594 8.89973 10.5594 8.38791ZM4.65857 11.1806C4.14426 11.1806 3.72686 11.6029 3.72686 12.1148C3.72686 12.6266 4.14426 13.049 4.65857 13.049H5.90085C6.41516 13.049 6.83257 12.6266 6.83257 12.1148C6.83257 11.6029 6.41516 11.1806 5.90085 11.1806H4.65857Z" fill="#01081B"/>
<mask id="mask0_5006_117" style="mask-type:luminance" maskUnits="userSpaceOnUse" x="7" y="10" width="15" height="15">
<path d="M21.8021 10.1272H7.3916V24.5377H21.8021V10.1272Z" fill="white"/>
</mask>
<g mask="url(#mask0_5006_117)">
<path d="M12.8372 19.5487L14.8045 17.5809M14.8045 17.5809L16.7717 15.6132M14.8045 17.5809L12.8372 15.6132M14.8045 17.5809L16.7717 19.5487" stroke="#2E68FD" stroke-width="3.47504" stroke-linecap="round" stroke-linejoin="round"/>
<path d="M14.5967 23.3351C17.9127 23.3351 20.601 20.6468 20.601 17.3324C20.601 14.018 17.9127 11.3297 14.5967 11.3297C11.2803 11.3297 8.59253 14.018 8.59253 17.3324C8.59253 20.6468 11.2803 23.3351 14.5967 23.3351Z" stroke="#2E68FD" stroke-width="3.86667" stroke-linecap="round" stroke-linejoin="round"/>
</g>
</svg>
