<svg width="25" height="22" viewBox="0 0 25 22" fill="none" xmlns="http://www.w3.org/2000/svg">
<path d="M19.5635 0H3.4138C1.53049 0 0 1.53547 0 3.41877V13.3571C0 15.2404 1.53049 16.7758 3.4138 16.7758H12.6464C13.1583 16.7758 13.5757 16.3534 13.5757 15.8416C13.5757 15.3298 13.1583 14.9074 12.6464 14.9074H3.4138C2.55911 14.9074 1.85845 14.2117 1.85845 13.3571V6.83754H21.1188V10.6638C21.1188 11.1756 21.5363 11.593 22.0481 11.593C22.5599 11.593 22.9773 11.1756 22.9773 10.6638V3.41877C22.9773 1.53547 21.4468 0 19.5635 0ZM1.85845 4.96914V3.41877C1.85845 2.56408 2.55911 1.8684 3.4138 1.8684H19.5635C20.4182 1.8684 21.1188 2.56408 21.1188 3.41877V4.96914H1.85845ZM9.62522 11.1806C10.137 11.1806 10.5545 11.6029 10.5545 12.1148C10.5545 12.6266 10.137 13.049 9.62522 13.049H8.38294C7.87112 13.049 7.45371 12.6266 7.45371 12.1148C7.45371 11.6029 7.87112 11.1806 8.38294 11.1806H9.62522ZM5.89837 11.1806C6.41019 11.1806 6.82759 11.6029 6.82759 12.1148C6.82759 12.6266 6.41019 13.049 5.89837 13.049H4.65608C4.14426 13.049 3.72686 12.6266 3.72686 12.1148C3.72686 11.6029 4.14426 11.1806 4.65608 11.1806H5.89837Z" fill="#01081B"/>
<path d="M22.9772 10.1071L18.7832 7.7418C18.1025 7.35918 17.2924 7.35918 16.6166 7.7418L12.4227 10.1071C11.6575 10.5394 11.1804 11.3892 11.1804 12.3284V12.7358C11.1804 16.9745 13.7544 20.6666 17.4465 21.7051C17.531 21.73 17.6155 21.7399 17.6999 21.7399C17.7844 21.7399 17.8689 21.73 17.9534 21.7051C21.6454 20.6666 24.2194 16.9745 24.2194 12.7358V12.3284C24.2194 11.3892 23.7424 10.5394 22.9772 10.1071ZM22.361 12.7358C22.361 16.0453 20.4578 18.9224 17.6999 19.8367C14.9421 18.9224 13.0389 16.0453 13.0389 12.7358V12.3284C13.0389 12.07 13.1631 11.8314 13.337 11.732L17.531 9.36672C17.5857 9.33691 17.6453 9.32202 17.6999 9.32202C17.7546 9.32202 17.8142 9.33691 17.8689 9.36672L22.0629 11.732C22.2417 11.8314 22.361 12.07 22.361 12.3284V12.7358ZM20.2242 12.6961C20.587 13.0638 20.587 13.6501 20.2242 14.0178L17.7397 16.5024C17.5558 16.6813 17.3173 16.7757 17.0788 16.7757C16.8403 16.7757 16.6018 16.6813 16.4229 16.5024L15.1806 15.2601C14.8129 14.8924 14.8129 14.3061 15.1806 13.9384C15.5433 13.5756 16.1346 13.5756 16.4974 13.9384L17.0788 14.5247L18.9075 12.6961C19.2702 12.3333 19.8615 12.3333 20.2242 12.6961Z" fill="#2E68FD"/>
</svg>
