<svg width="13" height="15" viewBox="0 0 13 15" fill="none" xmlns="http://www.w3.org/2000/svg">
<path d="M5.84667 6.83459L0.0536499 13.1221C0.0541468 13.123 0.0541387 13.125 0.0546356 13.126C0.232531 13.8088 0.842252 14.3112 1.56576 14.3112C1.85496 14.3112 2.12677 14.2311 2.35982 14.091L2.3782 14.0796L8.89871 10.232L5.84667 6.83459Z" fill="#EA4335"/>
<path d="M11.7073 5.76366L11.7018 5.7602L8.88633 4.09106L5.71503 6.97765L8.89776 10.2314L11.6979 8.57918C12.1888 8.30787 12.5222 7.77865 12.5222 7.16894C12.5222 6.5622 12.1938 6.03597 11.7073 5.76366Z" fill="#FBBC04"/>
<path d="M0.0531671 1.1886C0.0183832 1.31978 0 1.45792 0 1.60053V12.711C0 12.8532 0.0183902 12.9913 0.054168 13.122L6.04545 6.99552L0.0531671 1.1886Z" fill="#4285F4"/>
<path d="M5.8894 7.15557L8.88778 4.09011L2.37473 0.228591C2.1377 0.0834925 1.86143 0 1.56626 0C0.842256 0 0.232046 0.503393 0.0541503 1.18715L0.0536499 1.18863L5.8894 7.15557Z" fill="#34A853"/>
</svg>
