<svg width="226" height="6" viewBox="0 0 226 6" fill="none" xmlns="http://www.w3.org/2000/svg">
<path d="M164.017 1.2938C164.109 1.4389 164.034 1.56114 163.775 1.58748C163.128 1.65208 162.474 1.71171 161.818 1.72463C160.389 1.75096 158.958 1.745 157.644 1.75245C157.294 1.89954 157.333 1.99396 157.657 2.02924C157.98 2.06452 158.314 2.07197 158.644 2.07197C170.911 2.09632 183.181 2.11122 195.447 2.14651C196.768 2.14998 198.088 2.2449 199.402 2.33584C200.945 2.44168 202.478 2.49932 204.024 2.33782C204.671 2.27074 205.348 2.19818 205.995 2.23346C211.836 2.55297 217.69 2.48639 223.54 2.49534C224.191 2.49732 224.841 2.57186 225.488 2.62552C225.537 2.6295 225.599 2.72789 225.596 2.77957C225.593 2.83373 225.541 2.91722 225.469 2.93212C225.067 3.01958 224.648 3.16816 224.246 3.15474C223.034 3.11598 221.837 3.0489 220.644 3.2755C220.246 3.35202 219.768 3.29636 219.327 3.29438C216.013 3.2904 212.699 3.28145 209.384 3.28294C204.521 3.28493 199.66 3.29437 194.797 3.29785C193.14 3.29984 191.489 3.32569 189.838 3.45588C188.639 3.55079 187.417 3.55972 186.204 3.56569C177.585 3.60444 168.963 3.62483 160.344 3.66558C157.696 3.67899 155.052 3.6934 152.401 3.84247C149.773 3.99105 147.109 3.95379 144.462 3.96124C131.862 3.98907 119.262 3.99452 106.665 4.02633C101.36 4.03925 96.0554 4.11329 90.7503 4.12273C85.2237 4.13018 79.6995 4.08199 74.1728 4.07652C66.4363 4.06907 58.6994 4.07056 50.9629 4.08745C49.5313 4.09093 48.0997 4.17839 46.6646 4.23056C45.5635 4.26932 44.4618 4.33641 43.3606 4.35132C40.8209 4.3866 38.2777 4.39207 35.735 4.42188C34.5191 4.43679 33.2902 4.41641 32.0941 4.51629C29.2403 4.75779 26.3677 4.76921 23.4975 4.82089C22.1737 4.84524 20.8569 4.93071 19.5331 4.99034C16.1208 5.14637 12.7443 5.48776 9.31905 5.58068C8.43951 5.60503 7.56694 5.72578 6.6879 5.75162C5.03715 5.80181 3.37993 5.84106 1.7262 5.83907C0.775108 5.83907 0.137561 5.41371 0.0953233 4.84723C0.0525887 4.28622 0.0262627 3.72322 0.000423172 3.1622C-0.0124966 2.87995 0.271729 2.66827 0.673732 2.56243C1.26854 2.40838 1.89615 2.26327 2.53667 2.20563C3.40627 2.12762 4.29823 2.14452 5.18075 2.10178C6.72068 2.02924 8.25963 1.94774 9.79957 1.86227C10.3487 1.83246 10.8943 1.76935 11.4434 1.74699C15.6304 1.57804 19.8044 1.33106 23.9716 1.06173C25.5045 0.963346 27.0604 0.981741 28.6063 0.955901C31.4759 0.909191 34.3526 0.937014 37.2024 0.666196C38.0685 0.584205 38.9645 0.606571 39.8499 0.589676C43.4913 0.526568 47.1322 0.519107 50.7736 0.318851C53.846 0.149403 56.9572 0.171769 60.0495 0.171769C71.5446 0.170278 83.0368 0.199593 94.5324 0.205556C108.456 0.212513 122.383 0.214509 136.307 0.21103C140.837 0.209043 145.371 0.19065 149.901 0.160835C151.224 0.151394 152.545 0.0773504 153.869 0.0361065C154.418 0.0197084 154.97 -0.0120883 155.519 0.00480677C156.951 0.0455537 158.382 0.1494 159.811 0.151388C161.125 0.153376 162.439 0.0510209 163.752 0.0028202C163.831 -0.000658197 163.998 0.0828145 163.985 0.108654C163.942 0.211018 163.887 0.368551 163.766 0.3929C163.357 0.47489 162.919 0.54346 162.488 0.552901C161.164 0.584207 159.837 0.578742 158.51 0.606569C158.079 0.61601 157.637 0.662221 157.226 0.734771C157.104 0.755144 157.042 0.922104 157.006 1.02993C156.993 1.0672 157.127 1.15467 157.212 1.1656C157.637 1.21777 158.102 1.32709 158.497 1.27889C160.357 1.05627 162.19 1.16361 164.017 1.2938ZM152.502 1.12832C152.421 1.09503 152.339 1.03391 152.257 1.03192C150.391 1.01155 148.525 0.994653 146.655 0.989187C146.237 0.9872 145.815 1.03192 145.357 1.05776C145.632 1.422 146.135 1.33653 146.527 1.34747C147.426 1.36983 148.267 1.39766 148.845 1.89209C148.969 1.99793 149.496 2.04414 149.747 1.98849C150.666 1.78774 151.548 1.5353 152.434 1.2938C152.489 1.2769 152.479 1.18398 152.502 1.12832ZM134.382 1.07466C134.12 1.07466 133.905 1.06721 133.689 1.07814C133.591 1.08411 133.441 1.10796 133.411 1.14722C133.323 1.26399 133.46 1.33107 133.748 1.3589C134.068 1.38872 134.382 1.44238 134.699 1.47418C134.973 1.50201 135.14 1.43492 135.134 1.29579C135.13 1.24758 135.039 1.17852 134.96 1.16014C134.758 1.1174 134.545 1.09702 134.382 1.07466Z" fill="#2E68FD"/>
</svg>
